<?xml version="1.0" encoding="UTF-8" standalone="no"?>
<!DOCTYPE svg PUBLIC "-//W3C//DTD SVG 1.1//EN" "http://www.w3.org/Graphics/SVG/1.1/DTD/svg11.dtd">
<svg version="1.1" xmlns="http://www.w3.org/2000/svg" xmlns:xlink="http://www.w3.org/1999/xlink" preserveAspectRatio="xMidYMid meet" viewBox="0 0 640 640" width="640" height="640"><defs><path d="M630.11 178.82C385.37 178.82 186.95 377.69 186.95 622.97C216.49 622.97 364.21 622.97 630.11 622.97C630.11 889.47 630.11 1037.52 630.11 1067.13C874.88 1067.13 1073.3 868.28 1073.3 622.97C1073.3 377.69 874.88 178.82 630.11 178.82Z" id="b1Y1t3BzIh"></path><path d="M1071.79 586.35C1053.21 814.53 862.57 993.89 630.11 993.89C630.11 1001.21 630.11 1059.8 630.11 1067.13C874.88 1067.13 1073.3 868.28 1073.3 622.97C1073.3 610.64 1072.78 598.43 1071.79 586.35Z" id="g124zwpEgA"></path><path d="M630.11 1067.13C874.88 1067.13 1073.3 868.28 1073.3 622.97C1073.3 377.69 874.88 178.82 630.11 178.82C385.37 178.82 186.95 377.69 186.95 622.97C178.59 622.97 111.71 622.97 103.35 622.97C88.55 622.97 76.63 610.66 77.34 595.91C91.42 302.16 333.53 68.31 630.11 68.31C935.77 68.31 1183.56 316.65 1183.56 622.97C1183.56 920.2 950.3 1162.81 657.24 1176.98C642.45 1177.7 630.11 1165.8 630.11 1151.03C630.11 1134.25 630.11 1075.52 630.11 1067.13Z" id="hX3DA0Gu7"></path><path d="M630.11 1067.13C874.88 1067.13 1073.3 868.28 1073.3 622.97C1073.3 377.69 874.88 178.82 630.11 178.82C385.37 178.82 186.95 377.69 186.95 622.97C178.59 622.97 111.71 622.97 103.35 622.97C88.55 622.97 76.63 610.66 77.34 595.91C91.42 302.16 333.53 68.31 630.11 68.31C935.77 68.31 1183.56 316.65 1183.56 622.97C1183.56 920.2 950.3 1162.81 657.24 1176.98C642.45 1177.7 630.11 1165.8 630.11 1151.03C630.11 1134.25 630.11 1075.52 630.11 1067.13Z" id="f1gClf62xa"></path><path d="M630.11 1067.13C874.88 1067.13 1073.3 868.28 1073.3 622.97C1073.3 377.69 874.88 178.82 630.11 178.82C385.37 178.82 186.95 377.69 186.95 622.97C178.59 622.97 111.71 622.97 103.35 622.97C88.55 622.97 76.63 610.66 77.34 595.91C91.42 302.16 333.53 68.31 630.11 68.31C935.77 68.31 1183.56 316.65 1183.56 622.97C1183.56 920.2 950.3 1162.81 657.24 1176.98C642.45 1177.7 630.11 1165.8 630.11 1151.03C630.11 1134.25 630.11 1075.52 630.11 1067.13Z" id="aRmwFB2K5"></path><path d="M1182.33 586.4C1164.07 866.68 938.15 1090.16 657.24 1103.74C642.45 1104.46 630.11 1092.56 630.11 1077.79C630.11 1085.11 630.11 1143.7 630.11 1151.03C630.11 1165.8 642.45 1177.7 657.24 1176.99C950.3 1162.81 1183.56 920.2 1183.56 622.97C1183.56 610.68 1183.11 598.49 1182.33 586.4Z" id="b2rUqVTDEb"></path><path d="M744.66 952.25C721.67 952.25 703.03 933.64 703.03 910.69C703.03 887.74 721.67 869.14 744.66 869.14C767.66 869.14 786.3 887.74 786.3 910.69C786.3 933.64 767.66 952.25 744.66 952.25Z" id="f61CQrcEny"></path><path d="M750.07 538.36C727.08 538.36 708.44 519.75 708.44 496.8C708.44 473.85 727.08 455.24 750.07 455.24C773.07 455.24 791.71 473.85 791.71 496.8C791.71 519.75 773.07 538.36 750.07 538.36Z" id="apRMVCIN"></path><path d="M513 518.07C490.01 518.07 471.36 499.47 471.36 476.52C471.36 453.57 490.01 434.96 513 434.96C535.99 434.96 554.64 453.57 554.64 476.52C554.64 499.47 535.99 518.07 513 518.07Z" id="b2ja8tWXNN"></path><path d="M340.38 555.69C317.38 555.69 298.74 537.08 298.74 514.13C298.74 491.18 317.38 472.58 340.38 472.58C363.37 472.58 382.01 491.18 382.01 514.13C382.01 537.08 363.37 555.69 340.38 555.69Z" id="d1w13DYdzs"></path><path d="M894.42 266.44C861.55 241.92 825.17 221.88 786.18 207.18C764.6 219.64 750.07 242.92 750.07 269.59C750.07 309.4 782.4 341.67 822.28 341.67C862.17 341.66 894.5 309.39 894.5 269.59C894.5 268.53 894.47 267.48 894.42 266.44Z" id="a2zqzvnGsi"></path><path d="M894.42 266.44C887.86 261.54 881.12 256.87 874.28 252.34C861.14 265.95 842.71 274.42 822.29 274.42C794.59 274.42 770.54 258.84 758.43 235.99C753.11 246.03 750.08 257.45 750.08 269.59C750.08 309.4 782.41 341.67 822.29 341.67C862.17 341.66 894.5 309.39 894.5 269.59C894.5 268.53 894.47 267.48 894.42 266.44Z" id="g3e6NKOvg"></path><path d="M928.47 538.36C905.47 538.36 886.83 519.75 886.83 496.8C886.83 473.85 905.47 455.24 928.47 455.24C951.46 455.24 970.1 473.85 970.1 496.8C970.1 519.75 951.46 538.36 928.47 538.36Z" id="e2IX3u6uxD"></path><path d="M750.07 776.03C727.08 776.03 708.44 757.42 708.44 734.47C708.44 711.52 727.08 692.92 750.07 692.92C773.07 692.92 791.71 711.52 791.71 734.47C791.71 757.42 773.07 776.03 750.07 776.03Z" id="dI6m1YxmR"></path><path d="M984.66 889.51C1008.43 857.79 1028.07 822.79 1042.76 785.3C1030.7 766.75 1009.78 754.47 985.97 754.47C948.6 754.47 918.31 784.7 918.31 822C918.31 858.86 947.89 888.8 984.66 889.51Z" id="b3kAM3Zzh"></path><path d="M984.65 889.51C984.66 889.51 984.66 889.5 984.66 889.5C996.86 873.21 1007.93 856.1 1017.8 838.29C1027.27 821.2 1035.61 803.5 1042.76 785.3C1036.76 776.08 1028.57 768.4 1018.92 763.02C997.3 802.51 969.87 838.36 937.78 869.4C949.76 881.53 966.32 889.16 984.65 889.51Z" id="b7L2AKVyI"></path><path d="M463.54 211.3C410.3 232.96 362.21 264.69 321.63 304.14C333.8 337.56 365.9 361.43 403.58 361.43C451.73 361.43 490.76 322.47 490.76 274.42C490.76 249.56 480.29 227.15 463.54 211.3Z" id="f1bOpzIlwk"></path><path d="M482.65 237.82C468.79 267.56 438.61 288.18 403.58 288.18C386.01 288.18 369.65 282.99 355.96 274.06C344.01 283.5 332.54 293.53 321.63 304.14C333.8 337.56 365.9 361.43 403.59 361.43C451.73 361.43 490.76 322.47 490.76 274.42C490.76 261.34 487.84 248.95 482.65 237.82Z" id="c2t9Wly4Te"></path><path d="M-31.68 745.96C-32.02 735.75 -23.71 727.32 -13.47 727.32C-7.37 727.32 23.15 727.32 78.07 727.32C306.51 749.29 433.42 761.5 458.8 763.94C473.18 763.94 484.83 775.57 484.83 789.91C487.27 815.36 499.47 942.62 521.45 1171.69C521.45 1226.77 521.45 1257.38 521.45 1263.5C521.44 1273.72 513 1282.02 502.77 1281.68C211.93 1272.01 -22.08 1037.46 -31.68 745.96Z" id="e1r8FZglO"></path><path d="M521.44 1190.26C521.44 1200.48 513 1208.77 502.77 1208.43C232.18 1199.44 10.82 995.77 -26.43 732.71C-29.81 736.1 -31.85 740.8 -31.68 745.96C-22.08 1037.46 211.93 1272.01 502.77 1281.68C513 1282.02 521.44 1273.72 521.44 1263.5C521.44 1248.85 521.44 1197.58 521.44 1190.26Z" id="aUiehArcR"></path><path d="M521.44 1171.69C276.57 1171.69 78.07 972.74 78.07 727.32C119.8 727.32 453.69 727.32 495.42 727.32C509.79 727.32 521.44 738.95 521.44 753.29C521.44 836.97 521.44 1088.01 521.44 1171.69Z" id="cMzwxWj6o"></path><path d="M521.44 1113.33C312.52 1096.21 144.6 933.95 118.28 727.32C114.26 727.32 82.09 727.32 78.07 727.32C78.07 972.74 276.57 1171.69 521.44 1171.69C521.44 1160.02 521.44 1125 521.44 1113.33Z" id="cGzu7AGgO"></path><path d="M392.61 1072.16C369.61 1072.16 350.97 1053.56 350.97 1030.61C350.97 1007.66 369.61 989.05 392.61 989.05C415.6 989.05 434.25 1007.66 434.25 1030.61C434.25 1053.56 415.6 1072.16 392.61 1072.16Z" id="gHCWnhKa"></path><path d="M399.4 892.67C376.41 892.67 357.77 874.07 357.77 851.11C357.77 828.16 376.41 809.56 399.4 809.56C422.4 809.56 441.04 828.16 441.04 851.11C441.04 874.07 422.4 892.67 399.4 892.67Z" id="a7ynXvr1i"></path><path d="M163.59 827.85C136.86 827.85 113.17 840.75 98.38 860.64C113.08 907.53 135.33 951.06 163.69 989.82C208.45 989.76 244.73 953.53 244.73 908.83C244.73 864.11 208.4 827.85 163.59 827.85Z" id="c35suNfCH"></path><path d="M235.95 872.21C235.82 872.48 235.68 872.74 235.55 873C214.95 912.39 158.43 913.07 136.39 874.47C130.2 863.62 124.45 852.48 119.16 841.09C111.14 846.34 104.09 852.96 98.38 860.64C113.08 907.53 135.33 951.06 163.69 989.82C208.45 989.76 244.73 953.53 244.73 908.83C244.73 895.65 241.55 883.21 235.95 872.21Z" id="dajw8J2O4"></path><path d="M280.43 514.13C280.43 547.14 307.32 574 340.38 574C373.43 574 400.32 547.14 400.32 514.13C400.32 481.12 373.43 454.27 340.38 454.27C307.32 454.27 280.43 481.12 280.43 514.13ZM317.05 514.13C317.05 501.32 327.52 490.89 340.38 490.89C353.24 490.89 363.7 501.32 363.7 514.13C363.7 526.95 353.24 537.38 340.38 537.38C327.52 537.38 317.05 526.95 317.05 514.13ZM750.08 436.94C717.02 436.94 690.13 463.79 690.13 496.8C690.13 529.81 717.02 556.67 750.08 556.67C783.13 556.67 810.02 529.81 810.02 496.8C810.02 463.79 783.13 436.94 750.08 436.94ZM750.07 473.56C762.93 473.56 773.4 483.99 773.4 496.8C773.4 509.62 762.93 520.05 750.07 520.05C737.21 520.05 726.75 509.62 726.75 496.8C726.75 483.99 737.21 473.56 750.07 473.56ZM513 536.38C546.05 536.38 572.95 509.53 572.95 476.52C572.95 443.51 546.05 416.65 513 416.65C479.95 416.65 453.05 443.51 453.05 476.52C453.05 509.53 479.95 536.38 513 536.38ZM513 499.76C500.14 499.76 489.67 489.33 489.67 476.52C489.67 463.7 500.14 453.27 513 453.27C525.86 453.27 536.33 463.7 536.33 476.52C536.33 489.33 525.86 499.76 513 499.76ZM392.61 1090.47C425.66 1090.47 452.56 1063.62 452.56 1030.61C452.56 997.6 425.66 970.74 392.61 970.74C359.56 970.74 332.66 997.6 332.66 1030.61C332.66 1063.62 359.56 1090.47 392.61 1090.47ZM392.61 1053.85C379.75 1053.85 369.28 1043.42 369.28 1030.61C369.28 1017.79 379.75 1007.36 392.61 1007.36C405.47 1007.36 415.93 1017.79 415.93 1030.61C415.93 1043.42 405.47 1053.85 392.61 1053.85ZM339.46 851.11C339.46 884.13 366.35 910.98 399.4 910.98C432.46 910.98 459.35 884.13 459.35 851.11C459.35 818.1 432.46 791.25 399.4 791.25C366.35 791.25 339.46 818.1 339.46 851.11ZM376.08 851.11C376.08 838.3 386.54 827.87 399.4 827.87C412.26 827.87 422.73 838.3 422.73 851.11C422.73 863.93 412.26 874.36 399.4 874.36C386.54 874.36 376.08 863.93 376.08 851.11ZM1043.55 1018.76C1145.64 911.69 1201.87 771.13 1201.87 622.97C1201.87 469.94 1142.4 326.06 1034.42 217.84C926.43 109.6 782.84 50 630.11 50C482.26 50 341.98 106.37 235.12 208.73C128.63 310.74 66.1 447.93 59.05 595.03C57.87 619.61 78.6 641.41 103.35 641.28C137.25 641.28 306.73 641.28 611.8 641.28C611.8 947.13 611.8 1117.04 611.8 1151.03C611.69 1175.74 633.37 1196.47 658.12 1195.28C804.9 1188.18 941.78 1125.49 1043.55 1018.76ZM1164.9 604.66C1157.54 604.66 1098.58 604.66 1091.22 604.66C1081.74 361.05 885.76 170.37 648.42 160.9C648.42 153.51 648.42 94.35 648.42 86.96C784.49 91.52 911.75 146.74 1008.5 243.7C1105.26 340.68 1160.37 468.26 1164.9 604.66ZM768.38 269.59C768.38 253.3 775.89 237.93 788.41 227.8C819.53 240.37 848.85 256.51 875.83 275.75C872.76 302.5 849.92 323.35 822.29 323.35C792.57 323.35 768.38 299.23 768.38 269.59ZM103.35 604.66C98.3 604.48 95.39 601.72 95.63 596.78C102.23 459.09 160.77 330.67 260.46 235.17C356.04 143.61 480.19 91.4 611.8 86.96C611.8 94.35 611.8 153.51 611.8 160.9C374.9 169.8 178.02 362.25 169 604.66C155.87 604.66 116.48 604.66 103.35 604.66ZM472.45 274.42C472.45 312.3 441.55 343.12 403.58 343.12C378.72 343.12 355.97 329.63 343.84 308.6C377.62 277.67 416.39 252.14 458.77 233.34C467.65 245.12 472.45 259.36 472.45 274.42ZM205.68 604.66C210.08 500.95 251.65 406.73 317.37 335.07C336.83 362.54 368.86 379.74 403.58 379.74C461.75 379.74 509.07 332.49 509.07 274.42C509.07 254.71 503.72 235.95 493.71 219.64C531.03 206.93 570.67 199.31 611.8 197.55C611.8 224.69 611.8 360.39 611.8 604.66C395.2 604.66 259.83 604.66 205.68 604.66ZM861.75 641.28C871.86 641.28 880.06 633.08 880.06 622.97C880.06 612.86 871.86 604.66 861.75 604.66C847.53 604.66 776.42 604.66 648.42 604.66C648.42 360.39 648.42 224.69 648.42 197.55C683.73 199.06 717.94 204.91 750.53 214.58C738.58 230.14 731.76 249.44 731.76 269.59C731.76 319.43 772.37 359.97 822.29 359.97C861.32 359.97 894.66 335.18 907.34 300.54C993.39 374.96 1049.42 483.32 1054.57 604.66C1043.83 604.66 957.94 604.66 947.2 604.66C937.09 604.66 928.89 612.86 928.89 622.97C928.89 633.08 937.09 641.28 947.2 641.28C957.94 641.28 1043.83 641.28 1054.57 641.28C1052.95 679.57 1046.26 716.56 1035.16 751.6C1020.96 741.68 1003.9 736.15 985.97 736.15C938.56 736.15 899.99 774.66 899.99 822C899.99 856.97 921.46 887.43 951.92 900.72C877.67 987.02 769.53 1043.22 648.42 1048.39C648.42 1021.25 648.42 885.55 648.42 641.28C776.42 641.28 847.53 641.28 861.75 641.28ZM1021.74 788.1C1009.46 817.24 994.04 844.74 975.89 870.16C953.55 865.46 936.61 845.51 936.61 822C936.62 794.86 958.75 772.78 985.97 772.78C999.67 772.78 1012.5 778.38 1021.74 788.1ZM1164.9 641.28C1160.48 773.22 1108.4 897.68 1017.04 993.49C921.8 1093.38 793.7 1152.05 656.35 1158.7C651.37 1158.94 648.62 1156.03 648.42 1151.02C648.42 1144.43 648.42 1091.67 648.42 1085.08C891.61 1075.53 1082.11 878.62 1091.22 641.28C1105.95 641.28 1157.53 641.28 1164.9 641.28ZM539.76 1048.85C539.76 1038.74 531.56 1030.54 521.44 1030.54C511.33 1030.54 503.13 1038.74 503.13 1048.85C503.13 1059.26 503.13 1142.54 503.13 1152.95C380.63 1147.72 271.41 1090.29 197.06 1002.32C235.47 988.56 263.04 951.84 263.04 908.83C263.04 854.08 218.43 809.54 163.59 809.54C143.64 809.54 124.3 815.65 108.05 826.56C101.8 800.42 97.97 773.37 96.79 745.63C136.66 745.63 455.56 745.63 495.42 745.63C499.67 745.63 503.13 749.07 503.13 753.29C503.13 774.3 503.13 942.39 503.13 963.4C503.13 973.51 511.33 981.71 521.44 981.71C531.56 981.71 539.76 973.51 539.76 963.4C539.76 942.39 539.76 774.3 539.76 753.29C539.76 728.87 519.87 709.01 495.42 709.01C444.53 709.01 37.42 709.01 -13.47 709.01C-33.65 708.89 -50.65 726.33 -49.98 746.56C-45.19 892.19 14.16 1029.24 117.12 1132.44C220.08 1235.64 356.83 1295.15 502.16 1299.98C522.47 1300.65 539.84 1283.69 539.76 1263.5C539.76 1220.57 539.76 1070.32 539.76 1048.85ZM172.85 970.82C150.25 938.41 132.01 902.74 119.04 864.63C130.76 852.8 146.57 846.16 163.59 846.16C198.23 846.16 226.42 874.28 226.42 908.83C226.42 940.24 203.11 966.33 172.85 970.82ZM-13.37 745.63C-6.02 745.63 52.8 745.63 60.15 745.63C68.77 981.42 261.01 1180.5 503.13 1189.6C503.13 1196.98 503.13 1255.99 503.13 1263.37C367.23 1258.79 239.35 1203.11 143.04 1106.57C46.73 1010.03 -8.81 881.85 -13.37 745.63ZM684.72 910.69C684.72 943.7 711.61 970.56 744.66 970.56C777.72 970.56 804.61 943.7 804.61 910.69C804.61 877.68 777.72 850.82 744.66 850.82C711.61 850.82 684.72 877.68 684.72 910.69ZM721.34 910.69C721.34 897.88 731.8 887.45 744.66 887.45C757.52 887.45 767.99 897.88 767.99 910.69C767.99 923.51 757.52 933.94 744.66 933.94C731.8 933.94 721.34 923.51 721.34 910.69ZM928.47 436.94C895.41 436.94 868.52 463.79 868.52 496.8C868.52 529.81 895.41 556.67 928.47 556.67C961.52 556.67 988.41 529.81 988.41 496.8C988.41 463.79 961.52 436.94 928.47 436.94ZM928.47 473.56C941.33 473.56 951.79 483.99 951.79 496.8C951.79 509.62 941.33 520.05 928.47 520.05C915.61 520.05 905.14 509.62 905.14 496.8C905.14 483.99 915.61 473.56 928.47 473.56ZM750.08 674.61C717.02 674.61 690.13 701.46 690.13 734.47C690.13 767.48 717.02 794.34 750.08 794.34C783.13 794.34 810.02 767.48 810.02 734.47C810.02 701.46 783.13 674.61 750.08 674.61ZM750.07 711.23C762.93 711.23 773.4 721.66 773.4 734.47C773.4 747.29 762.93 757.72 750.07 757.72C737.21 757.72 726.75 747.29 726.75 734.47C726.75 721.66 737.21 711.23 750.07 711.23Z" id="abynkx3s6"></path></defs><g><g><g><use xlink:href="#b1Y1t3BzIh" opacity="1" fill="#f2d59c" fill-opacity="1"></use><g><use xlink:href="#b1Y1t3BzIh" opacity="1" fill-opacity="0" stroke="#000000" stroke-width="1" stroke-opacity="0"></use></g></g><g><use xlink:href="#g124zwpEgA" opacity="1" fill="#ecc372" fill-opacity="1"></use><g><use xlink:href="#g124zwpEgA" opacity="1" fill-opacity="0" stroke="#000000" stroke-width="1" stroke-opacity="0"></use></g></g><g><use xlink:href="#hX3DA0Gu7" opacity="1" fill="#c6855b" fill-opacity="1"></use><g><use xlink:href="#hX3DA0Gu7" opacity="1" fill-opacity="0" stroke="#000000" stroke-width="1" stroke-opacity="0"></use></g></g><g><use xlink:href="#f1gClf62xa" opacity="1" fill="#c6855b" fill-opacity="1"></use><g><use xlink:href="#f1gClf62xa" opacity="1" fill-opacity="0" stroke="#000000" stroke-width="1" stroke-opacity="0"></use></g></g><g><use xlink:href="#aRmwFB2K5" opacity="1" fill="#c6855b" fill-opacity="1"></use><g><use xlink:href="#aRmwFB2K5" opacity="1" fill-opacity="0" stroke="#000000" stroke-width="1" stroke-opacity="0"></use></g></g><g><use xlink:href="#b2rUqVTDEb" opacity="1" fill="#c17e4e" fill-opacity="1"></use><g><use xlink:href="#b2rUqVTDEb" opacity="1" fill-opacity="0" stroke="#000000" stroke-width="1" stroke-opacity="0"></use></g></g><g><use xlink:href="#f61CQrcEny" opacity="1" fill="#e17f85" fill-opacity="1"></use><g><use xlink:href="#f61CQrcEny" opacity="1" fill-opacity="0" stroke="#000000" stroke-width="1" stroke-opacity="0"></use></g></g><g><use xlink:href="#apRMVCIN" opacity="1" fill="#e17f85" fill-opacity="1"></use><g><use xlink:href="#apRMVCIN" opacity="1" fill-opacity="0" stroke="#000000" stroke-width="1" stroke-opacity="0"></use></g></g><g><use xlink:href="#b2ja8tWXNN" opacity="1" fill="#e17f85" fill-opacity="1"></use><g><use xlink:href="#b2ja8tWXNN" opacity="1" fill-opacity="0" stroke="#000000" stroke-width="1" stroke-opacity="0"></use></g></g><g><use xlink:href="#d1w13DYdzs" opacity="1" fill="#e17f85" fill-opacity="1"></use><g><use xlink:href="#d1w13DYdzs" opacity="1" fill-opacity="0" stroke="#000000" stroke-width="1" stroke-opacity="0"></use></g></g><g><use xlink:href="#a2zqzvnGsi" opacity="1" fill="#e17f85" fill-opacity="1"></use><g><use xlink:href="#a2zqzvnGsi" opacity="1" fill-opacity="0" stroke="#000000" stroke-width="1" stroke-opacity="0"></use></g></g><g><use xlink:href="#g3e6NKOvg" opacity="1" fill="#de646e" fill-opacity="1"></use><g><use xlink:href="#g3e6NKOvg" opacity="1" fill-opacity="0" stroke="#000000" stroke-width="1" stroke-opacity="0"></use></g></g><g><use xlink:href="#e2IX3u6uxD" opacity="1" fill="#e17f85" fill-opacity="1"></use><g><use xlink:href="#e2IX3u6uxD" opacity="1" fill-opacity="0" stroke="#000000" stroke-width="1" stroke-opacity="0"></use></g></g><g><use xlink:href="#dI6m1YxmR" opacity="1" fill="#e17f85" fill-opacity="1"></use><g><use xlink:href="#dI6m1YxmR" opacity="1" fill-opacity="0" stroke="#000000" stroke-width="1" stroke-opacity="0"></use></g></g><g><use xlink:href="#b3kAM3Zzh" opacity="1" fill="#e17f85" fill-opacity="1"></use><g><use xlink:href="#b3kAM3Zzh" opacity="1" fill-opacity="0" stroke="#000000" stroke-width="1" stroke-opacity="0"></use></g></g><g><use xlink:href="#b7L2AKVyI" opacity="1" fill="#de646e" fill-opacity="1"></use><g><use xlink:href="#b7L2AKVyI" opacity="1" fill-opacity="0" stroke="#000000" stroke-width="1" stroke-opacity="0"></use></g></g><g><use xlink:href="#f1bOpzIlwk" opacity="1" fill="#e17f85" fill-opacity="1"></use><g><use xlink:href="#f1bOpzIlwk" opacity="1" fill-opacity="0" stroke="#000000" stroke-width="1" stroke-opacity="0"></use></g></g><g><use xlink:href="#c2t9Wly4Te" opacity="1" fill="#de646e" fill-opacity="1"></use><g><use xlink:href="#c2t9Wly4Te" opacity="1" fill-opacity="0" stroke="#000000" stroke-width="1" stroke-opacity="0"></use></g></g><g><use xlink:href="#e1r8FZglO" opacity="1" fill="#c6855b" fill-opacity="1"></use><g><use xlink:href="#e1r8FZglO" opacity="1" fill-opacity="0" stroke="#000000" stroke-width="1" stroke-opacity="0"></use></g></g><g><use xlink:href="#aUiehArcR" opacity="1" fill="#c17e4e" fill-opacity="1"></use><g><use xlink:href="#aUiehArcR" opacity="1" fill-opacity="0" stroke="#000000" stroke-width="1" stroke-opacity="0"></use></g></g><g><use xlink:href="#cMzwxWj6o" opacity="1" fill="#f2d59c" fill-opacity="1"></use><g><use xlink:href="#cMzwxWj6o" opacity="1" fill-opacity="0" stroke="#000000" stroke-width="1" stroke-opacity="0"></use></g></g><g><use xlink:href="#cGzu7AGgO" opacity="1" fill="#ecc372" fill-opacity="1"></use><g><use xlink:href="#cGzu7AGgO" opacity="1" fill-opacity="0" stroke="#000000" stroke-width="1" stroke-opacity="0"></use></g></g><g><use xlink:href="#gHCWnhKa" opacity="1" fill="#e17f85" fill-opacity="1"></use><g><use xlink:href="#gHCWnhKa" opacity="1" fill-opacity="0" stroke="#000000" stroke-width="1" stroke-opacity="0"></use></g></g><g><use xlink:href="#a7ynXvr1i" opacity="1" fill="#e17f85" fill-opacity="1"></use><g><use xlink:href="#a7ynXvr1i" opacity="1" fill-opacity="0" stroke="#000000" stroke-width="1" stroke-opacity="0"></use></g></g><g><use xlink:href="#c35suNfCH" opacity="1" fill="#e17f85" fill-opacity="1"></use><g><use xlink:href="#c35suNfCH" opacity="1" fill-opacity="0" stroke="#000000" stroke-width="1" stroke-opacity="0"></use></g></g><g><use xlink:href="#dajw8J2O4" opacity="1" fill="#de646e" fill-opacity="1"></use><g><use xlink:href="#dajw8J2O4" opacity="1" fill-opacity="0" stroke="#000000" stroke-width="1" stroke-opacity="0"></use></g></g><g><use xlink:href="#abynkx3s6" opacity="1" fill="#000000" fill-opacity="1"></use><g><use xlink:href="#abynkx3s6" opacity="1" fill-opacity="0" stroke="#000000" stroke-width="1" stroke-opacity="0"></use></g></g></g></g></svg>