<?xml version="1.0" encoding="UTF-8" standalone="no"?>
<!DOCTYPE svg PUBLIC "-//W3C//DTD SVG 1.1//EN" "http://www.w3.org/Graphics/SVG/1.1/DTD/svg11.dtd">
<svg version="1.1" xmlns="http://www.w3.org/2000/svg" xmlns:xlink="http://www.w3.org/1999/xlink" preserveAspectRatio="xMidYMid meet" viewBox="0 0 640 640" width="640" height="640"><defs><path d="M229.96 180.39C224.29 180.39 219.7 183.97 219.7 188.39C219.7 192.81 224.29 196.39 229.96 196.39C235.62 196.39 240.21 192.81 240.21 188.39C240.21 183.97 235.62 180.39 229.96 180.39Z" id="c88hReV5k"></path><path d="M435.39 242.96C429.73 242.96 425.14 246.54 425.14 250.96C425.14 255.38 429.73 258.96 435.39 258.96C441.05 258.96 445.64 255.38 445.64 250.96C445.64 246.54 441.05 242.96 435.39 242.96Z" id="ewn3Mua77"></path><path d="M240.22 384.68C234.55 384.68 229.96 388.26 229.96 392.68C229.96 397.1 234.55 400.68 240.22 400.68C245.88 400.68 250.47 397.1 250.47 392.68C250.47 388.26 245.88 384.68 240.22 384.68Z" id="a8SI6tjbD"></path><path d="M355.4 482.79C349.74 482.79 345.15 486.37 345.15 490.79C345.15 495.2 349.74 498.79 355.4 498.79C361.06 498.79 365.65 495.2 365.65 490.79C365.65 486.37 361.06 482.79 355.4 482.79Z" id="a2WuSyVE2B"></path><path d="M74.53 227.37C72.75 229.68 71.14 231.98 69.7 234.23C61.61 246.9 56.08 261.03 53.44 275.83C52.61 281.66 56.67 287.06 62.5 287.89C63 287.96 63.5 288 64 288C68.26 288 102.4 288 106.66 288C107.61 287.99 108.55 287.86 109.46 287.6C119.37 304.68 198.64 441.35 208.55 458.43C184.84 484.62 186.84 525.07 213.03 548.78C228.37 562.67 249.47 568.28 269.68 563.85C273.79 570.93 306.66 627.6 310.77 634.68C313.73 639.78 320.25 641.51 325.35 638.56C326.96 637.63 328.29 636.29 329.22 634.68C341.37 613.74 438.54 446.19 450.69 425.25C485.25 417.88 507.29 383.89 499.93 349.33C499.48 347.26 498.94 345.21 498.29 343.19C512.32 319.01 624.53 125.54 638.56 101.35C641.1 96.97 640.21 91.4 636.42 88.03C635.39 87.11 610.5 65.27 558.8 43.5C511.67 23.66 431.98 0 320 0C208.02 0 128.32 23.66 81.2 43.5C29.5 65.27 4.61 87.1 3.58 88.03C-0.21 91.4 -1.1 96.97 1.44 101.35C16.06 126.55 59.91 202.16 74.53 227.37ZM77.64 266.67C83.91 247.67 101.83 213.33 149.33 213.33C196.83 213.33 214.75 247.67 221.02 266.67C218.81 266.67 201.13 266.67 198.92 266.67C193.02 255.28 178.35 234.67 149.33 234.67C120.31 234.67 105.64 255.28 99.74 266.67C95.32 266.67 82.06 266.67 77.64 266.67ZM234.66 288C240.55 288 245.33 283.22 245.33 277.33C245.33 276.83 245.29 276.32 245.22 275.82C243.43 265.64 240.24 255.75 235.74 246.44C258.7 241.15 281.6 255.47 286.89 278.43C292.18 301.38 277.86 324.29 254.9 329.58C231.95 334.87 209.04 320.55 203.75 297.59C203.03 294.44 202.66 291.23 202.66 288C209.06 288 228.26 288 234.66 288ZM256 458.67C279.56 458.67 298.66 477.77 298.66 501.33C298.66 524.9 279.56 544 256 544C232.44 543.97 213.36 524.89 213.33 501.33C213.33 477.77 232.43 458.67 256 458.67ZM415.28 399.18C422.07 386.87 426.66 371.39 426.66 352C426.74 342.06 425.39 332.16 422.66 322.61C444.78 314.49 469.29 325.85 477.41 347.97C485.52 370.1 474.16 394.61 452.04 402.72C447.33 404.45 442.35 405.33 437.33 405.33C429.56 405.34 421.93 403.21 415.28 399.18ZM352 280.31C371 286.58 405.33 304.5 405.33 352C405.33 399.5 371 417.42 352 423.69C352 421.48 352 403.8 352 401.58C363.38 395.69 384 381.02 384 352C384 322.98 363.38 308.31 352 302.41C352 297.99 352 282.52 352 280.31ZM414.24 302.98C406.86 290.56 396.65 280.07 384.43 272.36C371.77 264.27 357.63 258.75 342.84 256.11C342.34 256.04 341.84 256 341.33 256C335.44 256 330.66 260.78 330.66 266.67C330.66 270.93 330.66 305.07 330.66 309.33C330.66 313.92 333.6 318 337.96 319.45C338.2 319.53 362.66 327.97 362.66 352C362.66 375.72 338.91 384.22 337.96 384.55C333.6 386 330.66 390.07 330.66 394.67C330.66 398.93 330.66 433.07 330.66 437.33C330.66 443.22 335.44 448 341.33 448C341.84 448 342.34 447.96 342.84 447.89C357.63 445.25 371.77 439.73 384.43 431.64C391.13 427.36 397.27 422.27 402.71 416.48C409.74 421.01 417.59 424.12 425.82 425.62C418.77 437.78 383.49 498.6 320 608.07C301.78 576.68 291.66 559.23 289.64 555.74C319.71 537.18 329.03 497.76 310.46 467.69C292.62 438.8 255.31 428.88 225.47 445.09C215.27 427.49 133.61 286.7 123.4 269.1C128.47 262.68 136.76 256 149.33 256C172.09 256 180.83 277.86 181.79 280.47C177.58 315.62 202.66 347.53 237.81 351.74C272.95 355.95 304.86 330.88 309.08 295.73C313.29 260.58 288.21 228.67 253.06 224.45C243.36 223.29 233.52 224.36 224.3 227.58C210.92 210.06 187.8 192 149.33 192C122.92 192 103.75 200.51 90 211.52C89.06 209.9 81.55 196.96 80.61 195.34C109.48 174.98 155.38 150.62 221.32 137.44C223.52 148.77 229.37 161.71 242.21 174.55C275.7 208.04 319.52 202.82 321.37 202.58C326.17 201.96 329.96 198.17 330.58 193.37C330.78 191.77 334.71 158.64 313.97 128.03C315.97 128.01 317.98 127.99 320 127.99C340.08 127.98 360.15 129.11 380.11 131.38C364.3 162.99 377.11 201.42 408.71 217.23C440.32 233.04 478.76 220.24 494.57 188.63C498.55 180.66 500.83 171.94 501.26 163.04C521.66 171.84 541.14 182.66 559.38 195.35C552.06 207.96 493.55 308.83 486.24 321.44C474.1 307 456.2 298.66 437.33 298.67C429.44 298.67 421.61 300.13 414.24 302.98ZM257.3 159.46C238.48 140.65 240.85 122.4 242.96 114.94C250.41 112.81 268.61 110.44 287.47 129.29C305.33 147.16 309.01 169.41 309.56 181.62C297.41 181.11 275.3 177.47 257.3 159.46ZM480 160C480 183.56 460.9 202.67 437.33 202.67C413.77 202.67 394.66 183.56 394.66 160C394.69 136.45 413.78 117.36 437.33 117.33C460.9 117.33 480 136.44 480 160ZM320 21.33C427.75 21.33 504.21 43.82 549.38 62.68C583.37 76.88 605.22 91.21 615.45 98.68C610.91 106.5 574.65 169.02 570.11 176.84C547.48 161.32 523.14 148.43 497.58 138.44C485.71 105.19 449.12 87.86 415.87 99.73C408.3 102.43 401.31 106.54 395.26 111.84C370.32 108.36 345.17 106.63 320 106.67C311.47 106.67 303 106.87 294.73 107.23C279.84 95.45 265.28 92.18 253.74 92.18C245.53 92.09 237.39 93.78 229.89 97.13C227.83 98.16 226.16 99.83 225.12 101.9C223.11 106.3 221.72 110.97 221 115.75C150.63 129.22 101.22 154.99 69.87 176.82C65.34 169.01 29.08 106.5 24.55 98.69C34.78 91.2 56.63 76.88 90.62 62.68C135.78 43.82 212.24 21.33 320 21.33Z" id="d8t3DK272o"></path></defs><g><g><g><use xlink:href="#c88hReV5k" opacity="1" fill="#ffffff" fill-opacity="1"></use><g><use xlink:href="#c88hReV5k" opacity="1" fill-opacity="0" stroke="#000000" stroke-width="1" stroke-opacity="0"></use></g></g><g><use xlink:href="#ewn3Mua77" opacity="1" fill="#ffffff" fill-opacity="1"></use><g><use xlink:href="#ewn3Mua77" opacity="1" fill-opacity="0" stroke="#000000" stroke-width="1" stroke-opacity="0"></use></g></g><g><use xlink:href="#a8SI6tjbD" opacity="1" fill="#ffffff" fill-opacity="1"></use><g><use xlink:href="#a8SI6tjbD" opacity="1" fill-opacity="0" stroke="#000000" stroke-width="1" stroke-opacity="0"></use></g></g><g><use xlink:href="#a2WuSyVE2B" opacity="1" fill="#ffffff" fill-opacity="1"></use><g><use xlink:href="#a2WuSyVE2B" opacity="1" fill-opacity="0" stroke="#000000" stroke-width="1" stroke-opacity="0"></use></g></g><g><use xlink:href="#d8t3DK272o" opacity="1" fill="#ffffff" fill-opacity="1"></use><g><use xlink:href="#d8t3DK272o" opacity="1" fill-opacity="0" stroke="#000000" stroke-width="1" stroke-opacity="0"></use></g></g></g></g></svg>